<svg width="38" height="27" viewBox="0 0 38 27" fill="none" xmlns="http://www.w3.org/2000/svg">
<path d="M12.9065 22.9554C12.566 22.9542 12.2387 22.8243 11.9902 22.5916C10.7597 21.4234 9.77987 20.017 9.11028 18.458C8.4407 16.899 8.0954 15.22 8.0954 13.5233C8.0954 11.8266 8.4407 10.1477 9.11028 8.58869C9.77987 7.0297 10.7597 5.62329 11.9902 4.45507C12.2554 4.24006 12.5922 4.13371 12.9328 4.1575C13.2733 4.18129 13.5921 4.33346 13.8248 4.58325C14.0575 4.83304 14.1867 5.16183 14.1863 5.5032C14.1859 5.84458 14.056 6.17307 13.8227 6.42233C12.8649 7.34043 12.1027 8.44282 11.582 9.66316C11.0613 10.8835 10.7929 12.1966 10.7929 13.5233C10.7929 14.8501 11.0613 16.1632 11.582 17.3835C12.1027 18.6039 12.8649 19.7062 13.8227 20.6244C14.0197 20.8088 14.1568 21.0482 14.2162 21.3114C14.2756 21.5747 14.2546 21.8497 14.1559 22.1009C14.0571 22.3521 13.8853 22.5678 13.6625 22.7202C13.4397 22.8725 13.1763 22.9545 12.9065 22.9554ZM7.5167 26.5666C7.76766 26.3141 7.90852 25.9726 7.90852 25.6166C7.90852 25.2606 7.76766 24.9191 7.5167 24.6667C6.00923 23.2285 4.80925 21.4994 3.98936 19.584C3.16948 17.6686 2.74675 15.6068 2.74675 13.5233C2.74675 11.4399 3.16948 9.37806 3.98936 7.46269C4.80925 5.54732 6.00923 3.81821 7.5167 2.38001C7.77757 2.12807 7.92768 1.78282 7.93399 1.4202C7.94031 1.05759 7.80232 0.707313 7.55038 0.446438C7.29844 0.185563 6.95319 0.0354558 6.59057 0.0291384C6.22795 0.0228211 5.87768 0.160811 5.6168 0.412752C3.84185 2.10406 2.42881 4.13817 1.46332 6.39179C0.497832 8.64541 0 11.0716 0 13.5233C0 15.9751 0.497832 18.4013 1.46332 20.6549C2.42881 22.9085 3.84185 24.9426 5.6168 26.6339C5.74646 26.7559 5.899 26.851 6.06562 26.9137C6.23224 26.9764 6.40962 27.0054 6.58753 26.9992C6.76544 26.9929 6.94035 26.9514 7.10214 26.8772C7.26394 26.8029 7.40941 26.6974 7.53017 26.5666H7.5167ZM25.7476 22.5916C26.978 21.4234 27.9579 20.017 28.6275 18.458C29.2971 16.899 29.6424 15.22 29.6424 13.5233C29.6424 11.8266 29.2971 10.1477 28.6275 8.58869C27.9579 7.0297 26.978 5.62329 25.7476 4.45507C25.6184 4.33386 25.4666 4.23928 25.3009 4.17673C25.1352 4.11418 24.9587 4.08488 24.7817 4.09051C24.6046 4.09614 24.4304 4.13659 24.269 4.20955C24.1076 4.2825 23.9621 4.38653 23.8409 4.51571C23.7197 4.64488 23.6251 4.79666 23.5626 4.96238C23.5 5.12811 23.4707 5.30453 23.4764 5.48158C23.482 5.65862 23.5224 5.83283 23.5954 5.99424C23.6684 6.15566 23.7724 6.30112 23.9016 6.42233C24.8645 7.33744 25.6313 8.43885 26.1553 9.6596C26.6793 10.8803 26.9495 12.1949 26.9495 13.5233C26.9495 14.8518 26.6793 16.1663 26.1553 17.3871C25.6313 18.6078 24.8645 19.7092 23.9016 20.6244C23.6414 20.8678 23.4883 21.2043 23.4757 21.5604C23.4631 21.9164 23.592 22.263 23.8342 22.5242C23.9614 22.6614 24.1157 22.7705 24.2874 22.8448C24.459 22.919 24.6443 22.9567 24.8313 22.9554C25.1717 22.9542 25.4991 22.8243 25.7476 22.5916ZM32.1075 26.6339C33.8876 24.9456 35.3053 22.9125 36.2741 20.6585C37.2429 18.4045 37.7425 15.9768 37.7425 13.5233C37.7425 11.0699 37.2429 8.64222 36.2741 6.38819C35.3053 4.13417 33.8876 2.10104 32.1075 0.412752C31.8423 0.197743 31.5054 0.0913914 31.1649 0.115183C30.8244 0.138975 30.5055 0.291137 30.2729 0.540927C30.0402 0.790716 29.911 1.11951 29.9114 1.46088C29.9118 1.80226 30.0417 2.13076 30.275 2.38001C31.7824 3.81821 32.9824 5.54732 33.8023 7.46269C34.6222 9.37806 35.0449 11.4399 35.0449 13.5233C35.0449 15.6068 34.6222 17.6686 33.8023 19.584C32.9824 21.4994 31.7824 23.2285 30.275 24.6667C30.0148 24.9101 29.8617 25.2467 29.8491 25.6027C29.8365 25.9588 29.9654 26.3053 30.2076 26.5666C30.3332 26.702 30.4854 26.8102 30.6546 26.8844C30.8238 26.9586 31.0065 26.9971 31.1912 26.9977C31.5316 26.9966 31.859 26.8666 32.1075 26.6339ZM21.5705 13.5233C21.5705 12.9903 21.4124 12.4693 21.1163 12.0261C20.8202 11.583 20.3993 11.2376 19.9069 11.0336C19.4145 10.8296 18.8726 10.7763 18.3499 10.8802C17.8271 10.9842 17.3469 11.2409 16.97 11.6178C16.5932 11.9947 16.3365 12.4748 16.2325 12.9976C16.1285 13.5204 16.1819 14.0622 16.3859 14.5546C16.5898 15.0471 16.9352 15.4679 17.3784 15.7641C17.8216 16.0602 18.3426 16.2182 18.8756 16.2182C19.5903 16.2182 20.2758 15.9343 20.7812 15.4289C21.2866 14.9235 21.5705 14.2381 21.5705 13.5233Z" fill="black"/>
<path d="M12.9065 22.9554C12.566 22.9542 12.2387 22.8243 11.9902 22.5916C10.7597 21.4234 9.77987 20.017 9.11028 18.458C8.4407 16.899 8.0954 15.22 8.0954 13.5233C8.0954 11.8266 8.4407 10.1477 9.11028 8.58869C9.77987 7.0297 10.7597 5.62329 11.9902 4.45507C12.2554 4.24006 12.5922 4.13371 12.9328 4.1575C13.2733 4.18129 13.5921 4.33346 13.8248 4.58325C14.0575 4.83304 14.1867 5.16183 14.1863 5.5032C14.1859 5.84458 14.056 6.17307 13.8227 6.42233C12.8649 7.34043 12.1027 8.44282 11.582 9.66316C11.0613 10.8835 10.7929 12.1966 10.7929 13.5233C10.7929 14.8501 11.0613 16.1632 11.582 17.3835C12.1027 18.6039 12.8649 19.7062 13.8227 20.6244C14.0197 20.8088 14.1568 21.0482 14.2162 21.3114C14.2756 21.5747 14.2546 21.8497 14.1559 22.1009C14.0571 22.3521 13.8853 22.5678 13.6625 22.7202C13.4397 22.8725 13.1763 22.9545 12.9065 22.9554ZM7.5167 26.5666C7.76766 26.3141 7.90852 25.9726 7.90852 25.6166C7.90852 25.2606 7.76766 24.9191 7.5167 24.6667C6.00923 23.2285 4.80925 21.4994 3.98936 19.584C3.16948 17.6686 2.74675 15.6068 2.74675 13.5233C2.74675 11.4399 3.16948 9.37806 3.98936 7.46269C4.80925 5.54732 6.00923 3.81821 7.5167 2.38001C7.77757 2.12807 7.92768 1.78282 7.93399 1.4202C7.94031 1.05759 7.80232 0.707313 7.55038 0.446438C7.29844 0.185563 6.95319 0.0354558 6.59057 0.0291384C6.22795 0.0228211 5.87768 0.160811 5.6168 0.412752C3.84185 2.10406 2.42881 4.13817 1.46332 6.39179C0.497832 8.64541 0 11.0716 0 13.5233C0 15.9751 0.497832 18.4013 1.46332 20.6549C2.42881 22.9085 3.84185 24.9426 5.6168 26.6339C5.74646 26.7559 5.899 26.851 6.06562 26.9137C6.23224 26.9764 6.40962 27.0054 6.58753 26.9992C6.76544 26.9929 6.94035 26.9514 7.10214 26.8772C7.26394 26.8029 7.40941 26.6974 7.53017 26.5666H7.5167ZM25.7476 22.5916C26.978 21.4234 27.9579 20.017 28.6275 18.458C29.2971 16.899 29.6424 15.22 29.6424 13.5233C29.6424 11.8266 29.2971 10.1477 28.6275 8.58869C27.9579 7.0297 26.978 5.62329 25.7476 4.45507C25.6184 4.33386 25.4666 4.23928 25.3009 4.17673C25.1352 4.11418 24.9587 4.08488 24.7817 4.09051C24.6046 4.09614 24.4304 4.13659 24.269 4.20955C24.1076 4.2825 23.9621 4.38653 23.8409 4.51571C23.7197 4.64488 23.6251 4.79666 23.5626 4.96238C23.5 5.12811 23.4707 5.30453 23.4764 5.48158C23.482 5.65862 23.5224 5.83283 23.5954 5.99424C23.6684 6.15566 23.7724 6.30112 23.9016 6.42233C24.8645 7.33744 25.6313 8.43885 26.1553 9.6596C26.6793 10.8803 26.9495 12.1949 26.9495 13.5233C26.9495 14.8518 26.6793 16.1663 26.1553 17.3871C25.6313 18.6078 24.8645 19.7092 23.9016 20.6244C23.6414 20.8678 23.4883 21.2043 23.4757 21.5604C23.4631 21.9164 23.592 22.263 23.8342 22.5242C23.9614 22.6614 24.1157 22.7705 24.2874 22.8448C24.459 22.919 24.6443 22.9567 24.8313 22.9554C25.1717 22.9542 25.4991 22.8243 25.7476 22.5916ZM32.1075 26.6339C33.8876 24.9456 35.3053 22.9125 36.2741 20.6585C37.2429 18.4045 37.7425 15.9768 37.7425 13.5233C37.7425 11.0699 37.2429 8.64222 36.2741 6.38819C35.3053 4.13417 33.8876 2.10104 32.1075 0.412752C31.8423 0.197743 31.5054 0.0913914 31.1649 0.115183C30.8244 0.138975 30.5055 0.291137 30.2729 0.540927C30.0402 0.790716 29.911 1.11951 29.9114 1.46088C29.9118 1.80226 30.0417 2.13076 30.275 2.38001C31.7824 3.81821 32.9824 5.54732 33.8023 7.46269C34.6222 9.37806 35.0449 11.4399 35.0449 13.5233C35.0449 15.6068 34.6222 17.6686 33.8023 19.584C32.9824 21.4994 31.7824 23.2285 30.275 24.6667C30.0148 24.9101 29.8617 25.2467 29.8491 25.6027C29.8365 25.9588 29.9654 26.3053 30.2076 26.5666C30.3332 26.702 30.4854 26.8102 30.6546 26.8844C30.8238 26.9586 31.0065 26.9971 31.1912 26.9977C31.5316 26.9966 31.859 26.8666 32.1075 26.6339ZM21.5705 13.5233C21.5705 12.9903 21.4124 12.4693 21.1163 12.0261C20.8202 11.583 20.3993 11.2376 19.9069 11.0336C19.4145 10.8296 18.8726 10.7763 18.3499 10.8802C17.8271 10.9842 17.3469 11.2409 16.97 11.6178C16.5932 11.9947 16.3365 12.4748 16.2325 12.9976C16.1285 13.5204 16.1819 14.0622 16.3859 14.5546C16.5898 15.0471 16.9352 15.4679 17.3784 15.7641C17.8216 16.0602 18.3426 16.2182 18.8756 16.2182C19.5903 16.2182 20.2758 15.9343 20.7812 15.4289C21.2866 14.9235 21.5705 14.2381 21.5705 13.5233Z" fill="url(#paint0_linear)"/>
<defs>
<linearGradient id="paint0_linear" x1="18.8713" y1="0.0289307" x2="18.8713" y2="27" gradientUnits="userSpaceOnUse">
<stop stop-color="#FF755C"/>
<stop offset="1" stop-color="#FF0C69"/>
</linearGradient>
</defs>
</svg>
